HIERARCHY
ROOT pelvis
{
  OFFSET 0 100 0
  CHANNELS 6 Xposition Yposition Zposition Zrotation Xrotation Yrotation
  JOINT pelvis_right_femur
  {
    OFFSET -10.78128 -3.44521 -0.5502486
    CHANNELS 3 Zrotation Xrotation Yrotation
    JOINT right_femur_tibia
    {
      OFFSET -0.8047443 -44.0398 -0.1307829
      CHANNELS 3 Zrotation Xrotation Yrotation
      JOINT right_tibia_foot
      {
        OFFSET 3.006224 -47.83518 -5
        CHANNELS 3 Zrotation Xrotation Yrotation
        End Site
        {
          OFFSET 0 -5 15
        }
      }
    }
  }
  JOINT pelvis_left_femur
  {
    OFFSET 10.78128 -3.44521 -0.5502486
    CHANNELS 3 Zrotation Xrotation Yrotation
    JOINT left_femur_tibia
    {
      OFFSET 0.8047443 -44.0398 -0.1307829
      CHANNELS 3 Zrotation Xrotation Yrotation
      JOINT left_tibia_foot
      {
        OFFSET -4.370144 -48.10324 -4.275266
        CHANNELS 3 Zrotation Xrotation Yrotation
        End Site
        {
          OFFSET 0 -5 15
        }
      }
    }
  }
  JOINT pelvis_spine1
  {
    OFFSET 0 6.468898 -3.129235
    CHANNELS 3 Zrotation Xrotation Yrotation
    JOINT spine1
    {
      OFFSET 0 23.15396 4.99043
      CHANNELS 3 Zrotation Xrotation Yrotation
      JOINT spine2
      {
        OFFSET 0 20.79997 -5.064912
        CHANNELS 3 Zrotation Xrotation Yrotation
        JOINT neck
        {
          OFFSET 0 14.38658 9.616178
          CHANNELS 3 Zrotation Xrotation Yrotation
          End Site
          {
            OFFSET 0 20 0
          }
        }
      }
      JOINT right_manubrium
      {
        OFFSET -5.722621 16.35077 3.967754
        CHANNELS 3 Zrotation Xrotation Yrotation
        JOINT right_clavicle
        {
          OFFSET -13.16364 1.694482 -4.693211
          CHANNELS 3 Zrotation Xrotation Yrotation
          JOINT right_humerus
          {
            OFFSET -28.5034 -0.3100689 -2.792744
            CHANNELS 3 Zrotation Xrotation Yrotation
            JOINT right_radius
            {
              OFFSET -25.15693 0.02248979 -1.271978
              CHANNELS 3 Zrotation Xrotation Yrotation
              End Site
              {
                OFFSET -15 0 0
              }
            }
          }
        }
      }
      JOINT left_manubrium
      {
        OFFSET 5.722621 16.35077 3.967754
        CHANNELS 3 Zrotation Xrotation Yrotation
        JOINT left_clavicle
        {
          OFFSET 13.16364 1.694482 -4.693211
          CHANNELS 3 Zrotation Xrotation Yrotation
          JOINT left_humerus
          {
            OFFSET 29.39168 -1.063119 -2.237045
            CHANNELS 3 Zrotation Xrotation Yrotation
            JOINT left_radius
            {
              OFFSET 24.59957 -0.9528479 0.9047498
              CHANNELS 3 Zrotation Xrotation Yrotation
              End Site
              {
                OFFSET 15 -0 -0
              }
            }
          }
        }
      }
    }
  }
}
MOTION
Frames: 15
Frame Time: 0.0416666666667
0 103.5113 0 -0.6230505 -0.5874587 0.02087499 4.515761 -15.24089 7.961377 -0 35.61767 -0 -7.16577 -15.10571 -2.487412 -5.168376 7.00421 -19.81471 -0 6.804355 -0 6.657892 -16.16166 24.50989 -1.961584 -4.602894 4.994396 2.440172 10.41422 -8.121271 1.540786 21.61538 5.829575 2.354345 -25.82684 9.331569 5.171148 -21.31493 11.51054 85.33505 30.76433 -18.26184 -0 0 18.38712 -9.787209 9.926904 4.22704 7.291839 -20.99632 -0.249826 -95.01842 21.67231 22.97451 0 0 -8.998042 14.13273 18.28155 -3.143977
0.2836901 103.9235 2.289172 -0.7217663 -0.1414502 0.04831435 4.909492 -17.43111 8.05264 -0 34.41507 -0 -7.159456 -14.62467 -2.524307 -5.222798 7.853242 -20.00355 -0 7.068481 -0 6.474554 -16.98901 24.37255 -2.060588 -4.187097 4.779293 2.575516 10.07333 -8.114939 1.592348 21.55815 6.025096 2.551235 -25.92143 9.483469 5.225999 -20.75519 11.41498 85.38153 31.32481 -18.59163 -0 0 17.91476 -9.335998 9.614969 4.061499 7.371042 -20.85727 -0.2202974 -94.9328 22.36542 22.56039 0 0 -9.730207 13.58572 18.19482 -2.437664
0.6040891 104.2759 4.439018 -0.10351 0.6238567 0.05206656 5.009594 -20.94504 8.725272 -0 32.78042 -0 -5.97121 -13.54577 -2.450869 -6.099322 8.702901 -20.30113 -0 6.317233 -0 10.58835 -16.40128 26.00991 -2.982415 -3.976931 5.028722 2.768855 10.64485 -8.244168 1.573488 21.19662 6.310589 2.912267 -25.36753 9.418142 6.343766 -20.35628 11.96785 85.24626 34.31683 -18.98827 -0 0 16.34969 -8.758164 9.990203 4.460752 7.088502 -21.35718 -0.9851512 -92.83655 21.50864 20.6842 0 0 -14.4003 15.23455 16.89206 -3.650638
0.9315407 104.3485 6.851126 0.2241747 0.467023 0.02135744 4.953306 -23.64134 7.473451 -0 28.37248 -0 -5.457816 -10.56899 -2.028763 -6.37079 9.086895 -19.02166 -0 6.735967 -0 12.4877 -16.47221 26.12056 -3.433413 -3.462964 4.966515 2.857875 11.31687 -8.188054 1.592461 21.15222 6.456873 3.162463 -24.63203 9.193383 6.238384 -19.91468 12.4468 85.78981 33.99195 -19.41643 -0 0 14.36093 -10.14079 10.42668 5.363798 7.264943 -22.34384 -1.987262 -90.99602 19.77721 18.35897 0 0 -17.61249 17.21276 16.07154 -5.897412
1.224589 104.3729 9.53253 -0.1512245 1.185816 0.08243955 5.539569 -26.69286 6.994259 -0 25.71044 -0 -5.797313 -9.153268 -1.778346 -6.257366 10.45744 -18.8491 -0 7.256435 -0 10.50576 -18.31333 24.7347 -3.206744 -2.623678 4.510687 3.039674 10.53444 -8.110328 1.584597 20.98706 6.894165 3.425921 -25.29851 9.542059 5.708054 -19.19017 12.05461 86.31403 33.94472 -20.01103 -0 0 13.72146 -9.666326 9.741225 5.268772 7.450493 -22.01829 -1.828058 -91.03442 21.13937 18.01565 0 0 -18.51974 15.49254 15.57067 -3.900725
1.483875 104.3637 12.54735 -0.6663345 1.888937 0.2410988 6.167355 -28.93503 6.464214 -0 23.29507 -0 -6.306146 -7.866763 -1.461881 -5.920742 11.40337 -18.4163 -0 8.478495 -0 7.948136 -19.67573 22.7449 -2.779697 -1.999371 4.066272 3.232964 9.882893 -8.132586 1.514698 20.76211 7.247559 3.631342 -26.0206 9.769059 5.24506 -18.61257 11.752 86.73014 33.62022 -20.57702 -0 0 13.31434 -9.422368 9.350161 5.203512 7.600102 -21.79695 -1.624351 -91.27534 22.20749 18.02273 0 0 -18.77293 13.90785 15.19559 -2.195691
1.728865 104.3659 15.86125 -1.124246 2.710881 0.5061633 6.801971 -30.97222 6.309682 -0 21.58855 -0 -6.687161 -6.891442 -1.220535 -5.678974 12.29442 -18.1819 -0 9.515242 -0 5.815186 -20.60516 20.93025 -2.4077 -1.480547 3.703646 3.430059 9.276665 -8.18667 1.417717 20.45793 7.590716 3.817646 -26.77146 9.977286 5.027795 -18.14437 11.49832 87.0449 33.92515 -21.05982 -0 0 12.97931 -8.88159 9.025296 5.161597 7.577115 -21.49464 -1.428378 -91.404 23.25698 18.18522 0 0 -19.39383 12.28477 14.56701 -0.2823149
1.971664 104.3485 19.54075 -1.506541 3.22809 0.8471253 7.208562 -32.27754 5.790031 -0 19.63534 -0 -7.079923 -5.637546 -0.8779749 -5.420631 12.84352 -17.52423 -0 11.04124 -0 3.964497 -20.94645 19.06951 -2.019126 -1.139541 3.415983 3.562826 8.997608 -8.264808 1.282384 20.21156 7.850873 3.949294 -27.27288 10.02637 4.750404 -17.81004 11.3985 87.48584 33.78826 -21.56675 -0 0 12.40228 -8.90975 8.965688 5.309683 7.561641 -21.54195 -1.439894 -91.20977 23.58397 18.01497 0 0 -20.19163 11.42057 13.95602 0.6783697
2.22588 104.3606 23.61065 -1.899336 3.766956 1.272761 7.627406 -33.3079 5.37007 -0 17.91811 -0 -7.473532 -4.463486 -0.5420151 -5.161652 13.30496 -16.83662 -0 12.83556 -0 2.166995 -20.93924 17.16004 -1.595212 -0.8886543 3.165717 3.68565 8.781548 -8.375644 1.115158 19.92259 8.101828 4.064881 -27.78284 10.03585 4.548232 -17.53672 11.33467 87.94494 33.82033 -22.09915 -0 0 11.81998 -8.911391 8.981293 5.481989 7.473584 -21.62243 -1.463429 -90.94397 23.80289 17.89552 0 0 -21.12822 10.59939 13.2395 1.633018
2.498066 104.4115 28.12625 -2.263525 4.082819 1.752291 7.91223 -33.6407 4.727016 -0 16.14067 -0 -7.952788 -3.213858 -0.1569331 -4.872604 13.52323 -15.85519 -0 15.37912 -0 0.4306591 -20.39711 15.17782 -1.108922 -0.7978467 2.97117 3.746785 8.770177 -8.510701 0.9127086 19.68544 8.293411 4.13169 -28.12638 9.93071 4.275822 -17.33934 11.34912 88.54845 33.54441 -22.711 -0 0 11.07228 -9.268997 9.147364 5.728752 7.371093 -21.94151 -1.596137 -90.49112 23.59849 17.58615 0 0 -22.13766 10.18923 12.58109 2.051558
2.79733 104.5545 33.11482 -2.598527 4.274652 2.267605 8.157144 -33.39608 4.09154 -0 14.5501 -0 -8.474743 -2.049151 0.2027038 -4.582496 13.5591 -14.74564 -0 18.6093 -0 -1.15244 -19.35041 13.25054 -0.5799091 -0.8493161 2.84545 3.758454 8.897882 -8.669411 0.6840385 19.46417 8.43961 4.159496 -28.36019 9.74395 4.007127 -17.21287 11.41319 89.26056 33.24445 -23.39622 -0 0 10.24411 -9.765097 9.402722 6.009019 7.199061 -22.38974 -1.78973 -89.91464 23.15922 17.22877 0 0 -23.29225 9.945652 11.91479 2.283877
3.12481 104.8279 38.59793 -2.825429 4.120661 2.761068 8.254893 -32.20345 3.301168 -0 13.0686 -0 -9.085995 -0.9546444 0.5130208 -4.305551 13.29601 -13.38895 -0 22.88462 -0 -2.423968 -17.68328 11.51983 -0.01788114 -1.100078 2.828754 3.663565 9.266227 -8.825772 0.4468459 19.35473 8.483381 4.11091 -28.314 9.426842 3.616834 -17.19226 11.5412 90.19581 32.59863 -24.17859 -0 0 9.246927 -10.64212 9.75257 6.354523 6.961786 -23.08992 -2.131904 -89.14211 22.31578 16.68799 0 0 -24.61593 10.03872 11.37921 2.084601
3.476012 105.3071 44.5501 -2.901113 3.604004 3.175385 8.266842 -30.07393 2.535959 -0 11.88825 -0 -9.748137 -0.07103491 0.6563981 -4.06871 12.6901 -11.91311 -0 28.2351 -0 -3.192579 -15.46747 10.19896 0.534987 -1.537291 2.958191 3.454969 9.862163 -8.958787 0.240799 19.36874 8.389662 3.976514 -27.96246 8.994856 3.115517 -17.30814 11.71423 91.33582 31.69764 -25.01639 -0 0 8.179384 -11.81565 10.14355 6.755432 6.603551 -23.96741 -2.623975 -88.24883 21.17168 16.10227 0 0 -26.10474 10.29187 11.005 1.701464
3.830456 106.0645 50.88952 -2.740517 2.541691 3.42706 8.170245 -26.87465 1.827038 -0 11.07519 -0 -10.47072 0.5275959 0.4931524 -3.893889 11.59416 -10.3706 -0 34.83248 -0 -3.230781 -12.8188 9.539091 1.02213 -2.142721 3.283108 3.097781 10.7263 -9.018401 0.141195 19.58959 8.067946 3.719711 -27.19028 8.448418 2.389392 -17.62348 11.91155 92.7126 30.32765 -25.82366 -0 0 7.118845 -13.37852 10.51748 7.233254 6.076297 -24.99269 -3.335863 -87.30045 19.74105 15.5647 0 0 -27.65654 10.61899 10.94639 1.242595
4.156306 107.184 57.45634 -2.333421 0.9677019 3.457305 8.029408 -22.90577 1.40239 -0 10.76939 -0 -11.19658 0.7412718 -0.1175773 -3.788771 9.838931 -8.984223 -0 42.45019 -0 -2.418323 -10.06271 9.728559 1.355671 -2.773722 3.832449 2.629835 11.78967 -8.962226 0.237227 19.99423 7.469005 3.345694 -26.09605 7.86477 1.452303 -18.18387 12.09036 94.18588 28.63738 -26.40492 -0 0 6.317019 -15.13449 10.8027 7.779498 5.325288 -25.9329 -4.235606 -86.49124 18.25197 15.41017 0 0 -28.99142 10.72781 11.20097 1.127569
